<?xml version="1.0" encoding="utf-8"?>
<!-- Generator: Adobe Illustrator 19.0.0, SVG Export Plug-In . SVG Version: 6.00 Build 0)  -->
<svg version="1.1" id="Layer_1" xmlns="http://www.w3.org/2000/svg" xmlns:xlink="http://www.w3.org/1999/xlink" x="0px" y="0px"
	 viewBox="131 -131 512 512" style="enable-background:new 131 -131 512 512;" xml:space="preserve">
<g id="XMLID_2_">
	<path id="XMLID_7_" d="M547.1-131c26.1,0,49.3,9.3,68,27.9c18.6,18.6,27.9,41,27.9,68v320.2c0,26.1-9.3,49.3-27.9,68
		c-18.6,18.6-41,27.9-68,27.9H226.9c-26.1,0-49.3-9.3-68-27.9c-18.6-18.6-27.9-41-27.9-68V-35.1c0-26.1,9.3-49.3,27.9-68
		s41-27.9,68-27.9H547.1z M557.4,220.9V75.7c-6.5,7.4-14,14-21.4,18.6c-7.4,4.7-22.3,14-43.8,27.9c-22.3,14-39.1,25.1-50.3,32.6
		c-21.4,14.9-40,23.3-54.9,23.3s-32.6-7.4-54.9-23.3c-10.2-7.4-26.1-17.7-47.5-30.7c-21.4-13-37.2-23.3-47.5-30.7
		c-2.8-1.9-6.5-4.7-11.2-9.3c-4.7-4.7-8.4-7.4-10.2-9.3V220c0,9.3,2.8,16.8,9.3,22.3c6.5,6.5,14,9.3,22.3,9.3h277.4
		c9.3,0,16.8-2.8,22.3-9.3C554.6,237.6,557.4,230.2,557.4,220.9z M557.4,30c0-9.3-2.8-16.8-9.3-23.3s-14-9.3-23.3-9.3H248.3
		c-9.3,0-16.8,2.8-22.3,9.3c-6.5,6.5-9.3,14-9.3,22.3c0,8.4,3.7,16.8,10.2,25.1c6.5,8.4,14,15.8,22.3,21.4
		c10.2,7.4,26.1,16.8,45.6,29.8c20.5,13,34.4,22.3,42.8,27.9c0.9,0,2.8,1.9,5.6,3.7c2.8,1.9,5.6,3.7,7.4,4.7
		c1.9,0.9,3.7,2.8,7.4,4.7c2.8,1.9,5.6,3.7,7.4,4.7c1.9,0.9,4.7,1.9,7.4,2.8c2.8,0.9,5.6,1.9,7.4,2.8c2.8,0.9,4.7,0.9,6.5,0.9
		c1.9,0,4.7,0,6.5-0.9c2.8-0.9,4.7-0.9,7.4-2.8c2.8-0.9,4.7-1.9,7.4-2.8c2.8-0.9,4.7-2.8,7.4-4.7c2.8-1.9,5.6-3.7,7.4-4.7
		c1.9-0.9,3.7-2.8,7.4-4.7c2.8-1.9,4.7-3.7,5.6-3.7l89.4-57.7c7.4-4.7,14.9-12.1,22.3-20.5C555.5,46.8,557.4,37.5,557.4,30z"/>
</g>
</svg>
